<svg width="180" height="16" viewBox="0 0 180 16" fill="none" xmlns="http://www.w3.org/2000/svg">
<path fill-rule="evenodd" clip-rule="evenodd" d="M0 4.03674L3.81849 0.218251L15.274 11.6737L11.4555 15.4922L0 4.03674Z" fill="#000A02"/>
<path fill-rule="evenodd" clip-rule="evenodd" d="M7.6366 11.6738L19.0921 0.21835L22.9106 4.03684L11.4551 15.4923L7.6366 11.6738Z" fill="#000A02"/>
<path fill-rule="evenodd" clip-rule="evenodd" d="M15.2732 4.03723L19.0917 0.218739L30.5472 11.6742L26.7287 15.4927L15.2732 4.03723Z" fill="#000A02"/>
<path fill-rule="evenodd" clip-rule="evenodd" d="M22.9137 11.6748L34.3692 0.219326L38.1877 4.03782L26.7322 15.4933L22.9137 11.6748Z" fill="#000A02"/>
<g style="mix-blend-mode:hard-light">
<path fill-rule="evenodd" clip-rule="evenodd" d="M22.9137 4.03772L26.7322 0.219228L38.1877 11.6747L34.3692 15.4932L22.9137 4.03772Z" fill="#00C000"/>
</g>
<g style="mix-blend-mode:hard-light">
<path fill-rule="evenodd" clip-rule="evenodd" d="M0 11.6738L11.4555 0.218351L15.274 4.03684L3.81849 15.4923L0 11.6738Z" fill="#00C000"/>
</g>
<g style="mix-blend-mode:hard-light">
<rect x="7.6366" y="4.03723" width="5.40016" height="16.2005" transform="rotate(-45 7.6366 4.03723)" fill="#00C000"/>
</g>
<g style="mix-blend-mode:hard-light">
<path fill-rule="evenodd" clip-rule="evenodd" d="M15.2732 11.6743L26.7287 0.218837L30.5472 4.03733L19.0917 15.4928L15.2732 11.6743Z" fill="#00C000"/>
</g>
<path fill-rule="evenodd" clip-rule="evenodd" d="M52.3017 10.1262L52.6508 12.679H52.6945L53.0872 10.0825L56.4691 0.220398H57.5601L60.9638 10.1262L61.3566 12.679H61.4002L61.8093 10.0825L64.4767 0.220398H66.6585L62.0111 15.7118H60.7675L57.4292 5.7842L56.971 3.49322H56.8619L56.4255 5.82784L53.0872 15.7118H51.8217L47.087 0.220398H49.3998L52.3017 10.1262Z" fill="black"/>
<path fill-rule="evenodd" clip-rule="evenodd" d="M68.9055 1.31116C68.9034 0.971929 69.0369 0.64591 69.2765 0.405682C69.5518 0.127645 69.933 -0.0192706 70.3238 0.00203295C70.7131 -0.0106032 71.0909 0.135022 71.3711 0.405682C71.6299 0.636188 71.7803 0.964619 71.7856 1.31116C71.7824 1.65196 71.6311 1.9745 71.3711 2.19483C71.0846 2.4529 70.7091 2.58977 70.3238 2.57666C69.9444 2.59293 69.5746 2.45523 69.2983 2.19483C69.0492 1.96839 68.9067 1.64776 68.9055 1.31116V1.31116Z" fill="black"/>
<path fill-rule="evenodd" clip-rule="evenodd" d="M69.3209 4.0387H71.3283V15.4936H69.3209V4.0387H69.3209Z" fill="black"/>
<path fill-rule="evenodd" clip-rule="evenodd" d="M78.9214 10.3443H77.6777V15.4936H75.6704V0.220398H77.6777V9.2534L78.8123 8.88248L82.6306 4.0387H84.9871L81.3433 8.46792V8.46792L80.1433 9.34068L81.5179 10.3225L85.5543 15.4936H83.0234L78.9214 10.3443Z" fill="black"/>
<path fill-rule="evenodd" clip-rule="evenodd" d="M87.9755 1.31116C87.9791 0.968751 88.1207 0.642275 88.3682 0.405679C88.6384 0.133421 89.0104 -0.0130094 89.3937 0.0020309C89.783 -0.0106052 90.1609 0.13502 90.441 0.405679C90.6998 0.636186 90.8502 0.964617 90.8556 1.31116C90.8523 1.65196 90.701 1.9745 90.441 2.19482C90.1545 2.45289 89.7791 2.58977 89.3937 2.57665C89.0143 2.59293 88.6445 2.45523 88.3682 2.19482C88.1192 1.96839 87.9767 1.64776 87.9755 1.31116H87.9755Z" fill="black"/>
<path fill-rule="evenodd" clip-rule="evenodd" d="M88.3673 4.0387H90.3746V15.4936H88.3673V4.0387V4.0387Z" fill="black"/>
<path fill-rule="evenodd" clip-rule="evenodd" d="M102.157 15.4936V9.20981C102.162 8.66305 102.133 8.11653 102.07 7.57339C102.029 7.16558 101.911 6.76936 101.721 6.40608C101.557 6.10205 101.301 5.85765 100.99 5.70788C100.609 5.54176 100.195 5.46347 99.7792 5.47878C99.0793 5.45513 98.3941 5.68353 97.8483 6.12244C97.3358 6.5525 96.9572 7.12037 96.7573 7.75885V15.4936H94.75V4.03874H96.1246L96.5173 5.56606H96.7355C97.1979 5.04508 97.739 4.59968 98.3392 4.24602C99.0436 3.86091 99.8387 3.67249 100.641 3.70055C101.334 3.67636 102.019 3.85047 102.616 4.20238C103.199 4.60788 103.626 5.20068 103.827 5.88243C104.24 5.23116 104.801 4.68571 105.463 4.28966C106.145 3.89382 106.922 3.69023 107.71 3.70055C108.312 3.68708 108.912 3.76806 109.489 3.94055C109.96 4.08967 110.375 4.37888 110.678 4.76967C111.019 5.2437 111.25 5.78784 111.354 6.36245C111.515 7.19623 111.588 8.04448 111.572 8.89343V15.4936H109.565V8.90434C109.57 8.40075 109.538 7.89747 109.467 7.39884C109.418 7.02572 109.296 6.66599 109.107 6.34063C108.934 6.05931 108.679 5.83828 108.376 5.70788C107.983 5.5556 107.564 5.48507 107.143 5.5006C106.429 5.46089 105.727 5.69499 105.179 6.15517C104.646 6.6902 104.288 7.37523 104.154 8.11886V15.4936H102.147H102.157Z" fill="black"/>
<path fill-rule="evenodd" clip-rule="evenodd" d="M122.843 15.4605C123.524 15.2715 124.166 14.9651 124.741 14.555L123.978 13.0277C123.602 13.3608 123.165 13.6166 122.69 13.7805C122.133 13.9922 121.541 14.0995 120.945 14.0968C119.476 14.0968 118.436 13.755 117.825 13.0713C117.154 12.2033 116.817 11.1232 116.876 10.0276H125.058C125.102 9.73107 125.131 9.4325 125.145 9.13304V8.32574C125.176 7.52575 125.031 6.72868 124.72 5.99113C124.475 5.44107 124.1 4.9583 123.629 4.58381C123.176 4.2456 122.655 4.01097 122.101 3.89652C121.542 3.77381 120.972 3.71163 120.4 3.71106C118.61 3.71106 117.232 4.23108 116.265 5.27111C115.298 6.31114 114.814 7.813 114.814 9.7767C114.804 10.6172 114.914 11.4548 115.141 12.264C115.336 12.9615 115.678 13.6089 116.145 14.1623C116.616 14.7004 117.212 15.116 117.879 15.3732C118.677 15.673 119.525 15.8174 120.378 15.7987C121.212 15.8061 122.042 15.6922 122.843 15.4605ZM122.527 6.13272C123.029 6.61274 123.265 7.43458 123.236 8.59825H116.953C117.054 7.43458 117.403 6.61274 118 6.13272C118.7 5.62 119.556 5.36556 120.422 5.4127C121.191 5.3658 121.948 5.62457 122.527 6.13272Z" fill="black"/>
<path fill-rule="evenodd" clip-rule="evenodd" d="M138.323 13.6281C138.301 12.9662 138.29 12.2717 138.29 11.5444V0.220398H136.283V4.21325L135.661 4.0387C135.462 3.97257 135.257 3.92152 135.05 3.88596L134.374 3.8096C134.134 3.78778 133.861 3.77687 133.556 3.77687C131.752 3.77687 130.352 4.29689 129.355 5.33692C128.359 6.37695 127.861 7.87154 127.861 9.82069C127.861 11.8426 128.264 13.3408 129.072 14.3154C129.879 15.2899 131.105 15.7772 132.748 15.7772C133.536 15.8015 134.316 15.613 135.007 15.2318C135.616 14.8907 136.125 14.3937 136.479 13.7917H136.697L137.199 15.5372H138.53C138.413 14.907 138.344 14.2688 138.323 13.6281ZM135.193 5.64233C135.587 5.73867 135.958 5.91301 136.284 6.15507H136.305V11.4571C136.167 12.2083 135.799 12.8982 135.253 13.4317C134.664 13.9067 133.919 14.1441 133.163 14.0971C132.64 14.1145 132.12 14.006 131.647 13.7808C131.246 13.5774 130.906 13.2727 130.66 12.8971C130.399 12.4861 130.214 12.0316 130.114 11.5552C129.993 10.9998 129.935 10.4327 129.94 9.86428C129.94 8.32241 130.265 7.20965 130.916 6.526C131.642 5.81801 132.631 5.44613 133.643 5.50051C134.164 5.4881 134.683 5.53568 135.193 5.64233Z" fill="black"/>
<path fill-rule="evenodd" clip-rule="evenodd" d="M142.37 1.31135C142.374 0.968944 142.515 0.642468 142.763 0.405872C143.028 0.139252 143.391 -0.00670669 143.767 0.00222365C144.156 -0.0104125 144.534 0.135213 144.814 0.405872C145.073 0.636379 145.223 0.96481 145.228 1.31135C145.225 1.65215 145.074 1.97469 144.814 2.19502C144.527 2.45309 144.152 2.58996 143.767 2.57685C143.387 2.59312 143.017 2.45542 142.741 2.19502C142.5 1.96476 142.366 1.64464 142.37 1.31135V1.31135Z" fill="black"/>
<path fill-rule="evenodd" clip-rule="evenodd" d="M142.785 4.0387H144.793V15.4936H142.785V4.0387V4.0387Z" fill="black"/>
<path fill-rule="evenodd" clip-rule="evenodd" d="M151.097 4.0387V10.3443C151.091 10.8918 151.128 11.4389 151.206 11.9808C151.26 12.3917 151.394 12.7882 151.599 13.1481C151.791 13.4559 152.068 13.702 152.396 13.8572C152.788 14.0391 153.218 14.1251 153.65 14.1081C154.431 14.1409 155.195 13.8758 155.788 13.3663C156.347 12.8625 156.781 12.2348 157.054 11.5335V4.0387H159.061V12.2208C159.061 12.7735 159.083 13.3372 159.127 13.9117C159.164 14.4349 159.229 14.9557 159.323 15.4718H157.97L157.425 13.5735H157.207C156.827 14.2292 156.286 14.7774 155.636 15.1663C154.872 15.5977 154.003 15.8092 153.126 15.7772C152.532 15.7877 151.94 15.7068 151.37 15.5372C150.881 15.3859 150.443 15.1028 150.105 14.719C149.732 14.2739 149.47 13.7467 149.341 13.1808C149.157 12.3944 149.073 11.5881 149.09 10.7807V4.0387H151.097V4.0387Z" fill="black"/>
<path fill-rule="evenodd" clip-rule="evenodd" d="M170.583 15.4936V9.20981C170.588 8.66305 170.559 8.11653 170.496 7.57339C170.455 7.16558 170.337 6.76936 170.147 6.40608C169.983 6.10205 169.727 5.85765 169.416 5.70788C169.034 5.54176 168.621 5.46347 168.205 5.47878C167.505 5.45513 166.82 5.68353 166.274 6.12244C165.761 6.5525 165.383 7.12037 165.183 7.75885V15.4936H163.176V4.03874H164.55L164.943 5.56606H165.161C165.624 5.04508 166.165 4.59968 166.765 4.24602C167.469 3.86091 168.264 3.67249 169.067 3.70055C169.759 3.67636 170.444 3.85047 171.041 4.20238C171.625 4.60788 172.052 5.20068 172.252 5.88243C172.666 5.23116 173.227 4.68571 173.889 4.28966C174.571 3.89382 175.347 3.69023 176.136 3.70055C176.738 3.68708 177.338 3.76806 177.914 3.94055C178.386 4.08967 178.801 4.37888 179.103 4.76967C179.444 5.2437 179.676 5.78784 179.78 6.36245C179.94 7.19623 180.013 8.04448 179.998 8.89343V15.4936H177.991V8.90434C177.996 8.40075 177.963 7.89747 177.892 7.39884C177.844 7.02572 177.721 6.66599 177.532 6.34063C177.36 6.05931 177.105 5.83828 176.802 5.70788C176.409 5.5556 175.99 5.48507 175.569 5.5006C174.855 5.46089 174.152 5.69499 173.605 6.15517C173.071 6.6902 172.714 7.37523 172.58 8.11886V15.4936H170.572H170.583Z" fill="black"/>
</svg>
